<svg width="154" height="106" viewBox="0 0 154 106" fill="none" xmlns="http://www.w3.org/2000/svg">
<rect width="154" height="105.409" rx="52.7046" fill="#011B2D"/>
<path d="M38.4531 35.9289H28.5331V74.5849H22.1971V35.9289H12.3411V30.3609H38.4531V35.9289ZM66.8821 74.5849H44.8021V41.3689L50.3701 35.9289H44.0341V30.3609H66.8821V35.9289H51.1381V51.6729L55.8101 46.9369H66.8821V52.4409H51.1381V69.0169H66.8821V74.5849ZM112.717 74.5209H106.381V39.8969L110.349 35.9929H105.165L96.6526 52.4409H92.0446L83.8526 35.9929H78.7326L82.7006 39.8969V74.5209H76.3646V30.3609H87.6926L94.2846 44.8889H95.0526L101.773 30.3609H112.717V74.5209ZM131.701 74.5849H125.365V30.3609H131.701V74.5849Z" fill="white"/>
<path d="M11.8269 21.3912L142.951 23.3358" stroke="white" stroke-width="5"/>
<path d="M11.8269 21.3912L142.951 23.3358" stroke="black" stroke-opacity="0.2" stroke-width="5"/>
<path d="M10.2842 79.7308L141.408 81.6755" stroke="white" stroke-width="5"/>
<path d="M10.2842 79.7308L141.408 81.6755" stroke="black" stroke-opacity="0.2" stroke-width="5"/>
</svg>
