<svg width="612" height="411" viewBox="0 0 612 411" fill="none" xmlns="http://www.w3.org/2000/svg">
<g clip-path="url(#clip0_11_50)">
<path d="M314.917 408.896C305.242 410.627 295.45 411.201 285.683 410.612C262.131 409.168 238.968 400.851 219.173 385.214C210.397 378.28 202.025 369.761 197.482 358.318C191.316 342.778 193.473 323.106 202.277 309.57C205.489 304.688 209.44 300.596 213.916 297.515C214.58 297.059 215.258 296.622 215.943 296.201C223.402 291.647 231.781 289.784 240.086 290.834C254.205 292.708 267.236 303.179 274.765 317.809C281.471 330.854 283.808 346.245 285.185 361.672C285.445 364.578 285.668 367.494 285.884 370.392C284.685 378.788 282.798 387.017 280.252 394.958C280.123 395.345 280.017 395.743 279.935 396.149C281.377 399.949 282.75 403.783 284.053 407.653C285.277 408.46 286.648 408.881 288.041 408.879H314.859L314.917 408.896Z" fill="#F2F2F2"/>
<path d="M283.497 409.641C283.32 409.737 283.128 409.789 282.933 409.795C282.739 409.8 282.545 409.759 282.364 409.672C282.183 409.586 282.017 409.456 281.878 409.292C281.738 409.127 281.627 408.93 281.551 408.713C281.435 408.38 281.327 408.047 281.212 407.715C280.173 404.65 279.084 401.615 277.945 398.609C263.358 359.819 241.601 325.635 214.363 298.714C214.207 298.581 214.083 298.399 214.005 298.188C213.926 297.977 213.896 297.745 213.916 297.515C213.956 297.251 214.044 297.001 214.174 296.784C214.305 296.568 214.473 296.39 214.668 296.263C214.863 296.137 215.079 296.066 215.3 296.055C215.52 296.044 215.74 296.094 215.943 296.201C216.051 296.261 216.153 296.338 216.246 296.429C227.899 307.952 238.589 320.841 248.162 334.907C257.737 348.961 266.168 364.108 273.337 380.136C275.291 384.514 277.147 388.952 278.904 393.453C279.25 394.346 279.596 395.247 279.935 396.149C281.377 399.949 282.75 403.783 284.053 407.653C284.075 407.714 284.096 407.785 284.118 407.846C284.184 408.012 284.221 408.192 284.225 408.377C284.229 408.561 284.201 408.744 284.142 408.914C284.084 409.084 283.996 409.236 283.884 409.362C283.773 409.487 283.641 409.582 283.497 409.641Z" fill="white"/>
<path d="M187.855 294.17C203.387 294.17 215.979 278.883 215.979 260.025C215.979 241.168 203.387 225.881 187.855 225.881C172.323 225.881 159.731 241.168 159.731 260.025C159.731 278.883 172.323 294.17 187.855 294.17Z" fill="#00A8E8"/>
<path d="M185.067 273.051C184.434 273.052 183.818 272.804 183.312 272.343L183.281 272.314L176.672 266.171C176.365 265.886 176.108 265.531 175.915 265.126C175.722 264.72 175.596 264.273 175.545 263.809C175.495 263.344 175.52 262.873 175.619 262.42C175.719 261.968 175.891 261.543 176.125 261.172C176.36 260.8 176.653 260.488 176.987 260.254C177.321 260.019 177.689 259.867 178.072 259.806C178.454 259.744 178.843 259.775 179.215 259.896C179.588 260.017 179.937 260.226 180.243 260.511L184.524 264.496L194.641 248.478C194.876 248.107 195.168 247.795 195.502 247.561C195.836 247.327 196.205 247.174 196.587 247.113C196.969 247.052 197.358 247.083 197.73 247.204C198.103 247.325 198.452 247.534 198.758 247.818L198.695 247.922L198.759 247.82C199.377 248.396 199.781 249.246 199.882 250.183C199.984 251.12 199.776 252.068 199.303 252.818L187.403 271.659C187.128 272.094 186.774 272.445 186.369 272.686C185.964 272.928 185.518 273.052 185.067 273.051V273.051Z" fill="white"/>
<path d="M611.141 411H0.858619C0.631327 410.999 0.413575 410.889 0.253087 410.694C0.0925997 410.498 0.00247192 410.234 0.00247192 409.958C0.00247192 409.682 0.0925997 409.417 0.253087 409.222C0.413575 409.026 0.631327 408.916 0.858619 408.915H611.141C611.369 408.916 611.586 409.026 611.747 409.222C611.907 409.417 611.998 409.682 611.998 409.958C611.998 410.234 611.907 410.498 611.747 410.694C611.586 410.889 611.369 410.999 611.141 411Z" fill="#011B2D"/>
<path d="M119.379 119.02C130.905 119.02 140.248 107.677 140.248 93.6834C140.248 79.6901 130.905 68.3463 119.379 68.3463C107.853 68.3463 98.5098 79.6901 98.5098 93.6834C98.5098 107.677 107.853 119.02 119.379 119.02Z" fill="#2F2E41"/>
<path d="M103.089 80.0222C106.462 75.9279 107.145 70.1194 104.616 67.0486C102.087 63.9778 97.3024 64.8076 93.93 68.9019C90.5576 72.9963 89.8742 78.8048 92.4035 81.8756C94.9328 84.9464 99.7171 84.1166 103.089 80.0222Z" fill="#2F2E41"/>
<path d="M141.13 71.9761C142.536 67.9825 140.119 62.901 135.733 60.6265C131.347 58.3519 126.653 59.7454 125.248 63.7391C123.843 67.7327 126.259 72.8141 130.645 75.0887C135.031 77.3633 139.725 75.9697 141.13 71.9761Z" fill="#2F2E41"/>
<path d="M177.491 239.965C178.019 238.748 178.32 237.406 178.374 236.032C178.427 234.659 178.232 233.288 177.802 232.016C177.373 230.744 176.718 229.601 175.885 228.67C175.053 227.738 174.062 227.039 172.982 226.622L142.828 149.176L129.034 160.919L163.012 233.354C162.556 235.602 162.795 237.975 163.683 240.023C164.572 242.071 166.048 243.652 167.833 244.467C169.618 245.282 171.587 245.274 173.367 244.444C175.147 243.614 176.614 242.021 177.491 239.965V239.965Z" fill="#FFB8B8"/>
<path d="M149.743 162.097L133.728 170.791C133.272 171.039 132.778 171.164 132.279 171.158C131.78 171.153 131.287 171.017 130.835 170.76C130.383 170.503 129.982 170.13 129.66 169.668C129.337 169.205 129.1 168.664 128.965 168.08L124.243 147.635C123.213 144.797 123.153 141.58 124.075 138.688C124.996 135.796 126.825 133.466 129.159 132.209C131.494 130.952 134.143 130.869 136.528 131.98C138.912 133.091 140.836 135.305 141.878 138.135L151.254 155.98C151.522 156.491 151.697 157.066 151.765 157.667C151.834 158.267 151.795 158.878 151.652 159.459C151.509 160.039 151.264 160.575 150.934 161.03C150.605 161.486 150.198 161.849 149.743 162.097V162.097Z" fill="#CCCCCC"/>
<path d="M75.7789 247.643C76.8821 247.332 77.9157 246.731 78.8069 245.883C79.6981 245.034 80.4252 243.959 80.937 242.732C81.4489 241.506 81.733 240.158 81.7693 238.783C81.8056 237.409 81.5934 236.042 81.1474 234.778L109.706 156.445L93.3689 151.449L70.4341 230.019C68.7349 231.069 67.4121 232.84 66.7163 234.995C66.0205 237.151 66 239.541 66.6589 241.713C67.3177 243.886 68.61 245.689 70.2909 246.782C71.9718 247.875 73.9245 248.181 75.779 247.643H75.7789Z" fill="#FFB8B8"/>
<path d="M67.994 389.629L76.3014 393.301L91.9217 356.146L79.6604 350.727L67.994 389.629Z" fill="#FFB8B8"/>
<path d="M89.514 409.749L63.4053 398.207L67.0781 385.96L83.0994 393.043C85.7747 394.225 87.9535 396.65 89.1565 399.783C90.3595 402.916 90.4881 406.501 89.514 409.749V409.749V409.749Z" fill="#2F2E41"/>
<path d="M87.6438 368.248C87.134 368.248 86.6306 368.111 86.1699 367.846L76.6227 362.356C75.84 361.91 75.2232 361.124 74.8938 360.153C74.5643 359.183 74.5461 358.098 74.8426 357.112L101.787 266.525C102.01 265.774 102.404 265.116 102.922 264.627C103.441 264.138 104.064 263.837 104.717 263.76C105.371 263.683 106.03 263.832 106.617 264.191C107.203 264.55 107.694 265.104 108.032 265.788L122.283 294.624C122.6 295.267 122.771 296 122.777 296.749C122.784 297.498 122.626 298.236 122.321 298.886L90.6726 366.127C90.3659 366.773 89.9244 367.309 89.3926 367.681C88.8608 368.053 88.2576 368.249 87.6438 368.248V368.248Z" fill="#011B2D"/>
<path d="M120.041 121.235C129.823 121.235 137.752 111.608 137.752 99.7319C137.752 87.8559 129.823 78.2285 120.041 78.2285C110.259 78.2285 102.329 87.8559 102.329 99.7319C102.329 111.608 110.259 121.235 120.041 121.235Z" fill="#FFB8B8"/>
<path d="M145.098 197.499L113.738 187.029L97.0583 146.529C96.257 144.583 95.8787 142.421 95.9592 140.248C96.0397 138.075 96.5765 135.963 97.5185 134.113C98.4604 132.262 99.7764 130.735 101.341 129.676C102.906 128.616 104.668 128.06 106.46 128.06H131.41C134 128.058 136.499 129.219 138.427 131.318C145.12 138.598 159.182 159.584 145.234 197.133L145.098 197.499Z" fill="#CCCCCC"/>
<path d="M105.84 170.454L89.9508 161.425C89.4987 161.168 89.0975 160.795 88.7746 160.333C88.4517 159.871 88.2146 159.33 88.0795 158.747C87.9444 158.163 87.9145 157.551 87.9917 156.953C88.0689 156.354 88.2515 155.782 88.5271 155.277L98.1833 137.572C99.2792 134.771 101.245 132.613 103.65 131.569C106.055 130.526 108.702 130.683 111.012 132.005C113.322 133.328 115.105 135.709 115.971 138.625C116.838 141.542 116.716 144.756 115.633 147.564L110.64 167.844C110.497 168.424 110.252 168.961 109.923 169.416C109.594 169.872 109.188 170.236 108.732 170.483C108.277 170.731 107.782 170.857 107.283 170.852C106.784 170.847 106.292 170.711 105.84 170.454V170.454Z" fill="#CCCCCC"/>
<path d="M125.063 399.782H133.903L138.11 358.381L125.061 358.382L125.063 399.782Z" fill="#FFB8B8"/>
<path d="M150.954 409.747L123.169 409.749L123.168 396.715L140.218 396.714C143.065 396.714 145.796 398.087 147.809 400.531C149.823 402.976 150.954 406.291 150.954 409.747V409.747Z" fill="#2F2E41"/>
<path d="M128.401 384.005C127.606 384.007 126.835 383.675 126.218 383.067C125.601 382.459 125.175 381.611 125.013 380.666C122.472 366.129 109.274 291.669 98.9727 253.316C88.4918 214.294 106.341 196.52 110.026 193.354C110.418 193.017 110.73 192.56 110.929 192.029L113.606 184.88C113.884 184.142 114.33 183.516 114.893 183.077C115.455 182.639 116.109 182.405 116.777 182.405H116.799C136.867 182.551 143.613 190.231 145.582 193.526C145.873 194.017 146.072 194.579 146.166 195.173C146.259 195.766 146.246 196.377 146.126 196.964L133.428 260.565C133.35 260.959 133.332 261.368 133.376 261.77L146.009 377.249C146.069 377.804 146.038 378.369 145.918 378.909C145.797 379.449 145.589 379.955 145.305 380.397C145.022 380.839 144.669 381.207 144.267 381.482C143.865 381.756 143.422 381.93 142.963 381.995L128.809 383.977C128.673 383.996 128.537 384.005 128.401 384.005V384.005Z" fill="#011B2D"/>
<path d="M101.43 86.2064C105.478 89.5931 110.281 91.3956 115.197 91.3717C113.444 92.8478 111.447 93.8448 109.346 94.2942C115.882 95.9962 122.636 96.0423 129.187 94.4295C130.643 94.146 132.048 93.5601 133.341 92.6975C133.985 92.2609 134.546 91.6646 134.987 90.9474C135.429 90.2302 135.741 89.4082 135.904 88.5348C136.34 85.5156 134.402 82.7726 132.388 80.9239C129.305 78.1367 125.75 76.2164 121.98 75.3019C118.211 74.3874 114.321 74.5016 110.593 75.6362C108.158 76.4002 105.719 77.6912 104.137 80.065C102.556 82.4389 102.088 86.0986 103.594 88.543L101.43 86.2064Z" fill="#2F2E41"/>
<path d="M426.547 179.479C431.724 179.479 435.922 174.383 435.922 168.097C435.922 161.811 431.724 156.716 426.547 156.716C421.369 156.716 417.172 161.811 417.172 168.097C417.172 174.383 421.369 179.479 426.547 179.479Z" fill="#00A8E8"/>
<path d="M425.618 172.439C425.407 172.439 425.201 172.357 425.033 172.203L425.022 172.194L422.819 170.146C422.717 170.051 422.631 169.933 422.566 169.797C422.501 169.662 422.459 169.513 422.442 169.358C422.425 169.203 422.434 169.046 422.467 168.895C422.5 168.744 422.557 168.602 422.636 168.478C422.714 168.354 422.812 168.25 422.923 168.172C423.034 168.093 423.158 168.043 423.285 168.022C423.413 168.002 423.543 168.012 423.667 168.053C423.791 168.094 423.908 168.164 424.01 168.259L425.437 169.588L428.809 164.248C428.887 164.124 428.985 164.02 429.096 163.942C429.207 163.864 429.33 163.814 429.458 163.793C429.585 163.773 429.714 163.783 429.839 163.823C429.963 163.864 430.079 163.933 430.181 164.028L430.16 164.063L430.182 164.029C430.388 164.221 430.522 164.504 430.556 164.816C430.59 165.129 430.521 165.445 430.363 165.695L426.396 171.975C426.305 172.12 426.187 172.237 426.052 172.317C425.917 172.398 425.768 172.44 425.618 172.439V172.439Z" fill="white"/>
<path d="M426.547 212.748C431.724 212.748 435.922 207.652 435.922 201.366C435.922 195.081 431.724 189.985 426.547 189.985C421.369 189.985 417.172 195.081 417.172 201.366C417.172 207.652 421.369 212.748 426.547 212.748Z" fill="#00A8E8"/>
<path d="M425.618 205.708C425.407 205.709 425.201 205.626 425.033 205.472L425.022 205.463L422.819 203.415C422.717 203.32 422.631 203.202 422.566 203.067C422.501 202.931 422.459 202.782 422.442 202.627C422.425 202.472 422.434 202.315 422.467 202.164C422.5 202.013 422.557 201.871 422.636 201.747C422.714 201.623 422.812 201.519 422.923 201.441C423.034 201.363 423.158 201.312 423.285 201.292C423.413 201.271 423.543 201.282 423.667 201.322C423.791 201.363 423.908 201.433 424.01 201.528L425.437 202.857L428.809 197.517C428.887 197.394 428.985 197.29 429.096 197.212C429.207 197.133 429.33 197.083 429.458 197.062C429.585 197.042 429.714 197.052 429.839 197.093C429.963 197.133 430.079 197.203 430.181 197.297L430.16 197.332L430.182 197.298C430.388 197.49 430.522 197.773 430.556 198.086C430.59 198.398 430.521 198.714 430.363 198.964L426.396 205.244C426.305 205.389 426.187 205.506 426.052 205.587C425.917 205.667 425.768 205.709 425.618 205.708V205.708Z" fill="white"/>
<path d="M431.595 251.27C436.772 251.27 440.969 246.175 440.969 239.889C440.969 233.603 436.772 228.507 431.595 228.507C426.417 228.507 422.22 233.603 422.22 239.889C422.22 246.175 426.417 251.27 431.595 251.27Z" fill="#00A8E8"/>
<path d="M430.666 244.231C430.455 244.231 430.249 244.148 430.081 243.995L430.07 243.985L427.867 241.937C427.765 241.842 427.679 241.724 427.614 241.589C427.549 241.454 427.507 241.304 427.49 241.15C427.473 240.995 427.481 240.837 427.515 240.686C427.548 240.535 427.605 240.393 427.683 240.269C427.762 240.145 427.859 240.041 427.971 239.963C428.082 239.885 428.205 239.834 428.333 239.814C428.461 239.794 428.59 239.804 428.715 239.845C428.839 239.885 428.956 239.955 429.058 240.051L430.485 241.379L433.857 236.04C433.935 235.916 434.033 235.812 434.144 235.734C434.255 235.656 434.378 235.605 434.505 235.585C434.633 235.564 434.762 235.574 434.887 235.615C435.011 235.655 435.127 235.725 435.229 235.82L435.208 235.854L435.23 235.82C435.435 236.012 435.57 236.295 435.604 236.608C435.638 236.92 435.568 237.236 435.411 237.486L431.444 243.767C431.352 243.911 431.235 244.029 431.1 244.109C430.964 244.189 430.816 244.231 430.666 244.231V244.231Z" fill="white"/>
<path d="M521.992 334.916C521.895 334.916 521.834 334.913 521.812 334.911L510.174 334.913V332.829H521.854C522.125 332.841 527.642 333.03 532.726 325.541C540.302 314.379 546.524 286.747 533.139 218.498C515.142 126.727 530.153 45.6521 537.442 15.0546C537.801 13.5408 537.865 11.9464 537.629 10.3972C537.393 8.84813 536.864 7.3868 536.083 6.12869C535.303 4.87059 534.291 3.85018 533.13 3.14812C531.968 2.44605 530.688 2.08156 529.391 2.08343H355.575C354.254 2.08558 352.951 2.46598 351.773 3.19378C350.596 3.92157 349.576 4.97624 348.797 6.27218C345.709 11.4289 341.472 21.3354 338.82 39.2481L337.131 38.8799C339.84 20.578 344.216 10.3801 347.409 5.04733C348.347 3.48579 349.576 2.21494 350.995 1.33795C352.414 0.460963 353.983 0.00256326 355.575 -2.48473e-05H529.391C530.954 -0.00185174 532.497 0.437794 533.896 1.28418C535.296 2.13056 536.514 3.3605 537.455 4.87681C538.396 6.39311 539.033 8.15425 539.317 10.0211C539.601 11.8879 539.523 13.8093 539.09 15.6334C531.839 46.0722 516.906 126.726 534.809 218.016C548.382 287.225 541.857 315.455 533.993 326.95C528.807 334.532 523.092 334.916 521.992 334.916Z" fill="#E6E6E6"/>
<path d="M490.674 372.938C490.577 372.938 490.516 372.935 490.494 372.934L478.856 372.935V370.852H490.536C490.808 370.862 496.324 371.053 501.408 363.563C508.984 352.402 515.206 324.77 501.821 256.521C483.824 164.75 498.835 83.6749 506.123 53.0774C506.483 51.5636 506.547 49.9692 506.311 48.42C506.075 46.8709 505.546 45.4096 504.765 44.1515C503.984 42.8934 502.973 41.873 501.812 41.1709C500.65 40.4689 499.37 40.1044 498.073 40.1062H324.257C322.936 40.1084 321.633 40.4888 320.455 41.2166C319.278 41.9444 318.258 42.999 317.479 44.295C314.391 49.4517 310.154 59.3582 307.502 77.2709L305.813 76.9027C308.522 58.6008 312.898 48.4028 316.091 43.0701C317.029 41.5086 318.258 40.2377 319.677 39.3607C321.096 38.4838 322.665 38.0254 324.257 38.0228H498.073C499.636 38.0209 501.179 38.4606 502.578 39.307C503.978 40.1534 505.196 41.3833 506.137 42.8996C507.078 44.4159 507.715 46.1771 507.999 48.0439C508.283 49.9107 508.205 51.8321 507.772 53.6562C500.521 84.095 485.588 164.749 503.491 256.038C517.064 325.248 510.539 353.478 502.675 364.973C497.489 372.554 491.774 372.938 490.674 372.938Z" fill="#CCCCCC"/>
<path d="M472.172 294.065C454.267 202.776 469.201 122.116 476.456 91.683C476.888 89.8588 476.965 87.9377 476.681 86.0713C476.396 84.2048 475.759 82.444 474.818 80.9278C473.878 79.4116 472.66 78.1814 471.261 77.3343C469.862 76.4872 468.32 76.0463 466.757 76.0465H292.937C291.346 76.0484 289.777 76.506 288.359 77.3823C286.94 78.2585 285.712 79.5286 284.774 81.0894C277.757 92.8037 263.198 131.65 279.459 239.136C288.156 296.639 288.026 335.844 285.185 361.672C283.591 376.214 281.132 386.51 278.904 393.453L278.666 394.188C278.197 395.593 277.952 397.093 277.945 398.609C277.929 400.321 278.211 402.018 278.774 403.587C279.337 405.157 280.168 406.563 281.212 407.715C281.892 408.489 282.662 409.138 283.497 409.641C284.191 410.07 284.925 410.397 285.683 410.613C286.455 410.841 287.246 410.956 288.041 410.954H459.178C459.2 410.954 459.257 410.963 459.358 410.963C460.454 410.963 466.173 410.578 471.358 402.996C479.218 391.5 485.744 363.274 472.172 294.065ZM470.088 401.586C465.004 409.08 459.488 408.888 459.221 408.879H288.041C286.67 408.879 285.321 408.47 284.11 407.691C282.9 406.911 281.865 405.783 281.096 404.405C280.42 403.214 279.966 401.858 279.765 400.433C279.565 399.007 279.623 397.545 279.935 396.149C280.017 395.743 280.123 395.345 280.252 394.958C282.798 387.017 284.684 378.788 285.884 370.392C289.952 343.47 290.709 301.927 281.147 238.759C265.008 132.07 279.279 93.8105 286.158 82.3151C286.939 81.0211 287.959 79.968 289.137 79.241C290.314 78.5141 291.616 78.1335 292.937 78.1302H466.757C468.053 78.1291 469.333 78.494 470.493 79.196C471.654 79.898 472.665 80.918 473.445 82.1754C474.226 83.4328 474.755 84.8933 474.991 86.4415C475.226 87.9897 475.163 89.5833 474.804 91.0964C467.514 121.695 452.507 202.776 470.507 294.547C483.891 362.792 477.667 390.423 470.088 401.586Z" fill="#3F3D56"/>
<path d="M389.596 175.452H300.043C298.222 175.452 296.476 174.574 295.189 173.011C293.902 171.448 293.178 169.328 293.178 167.118C293.178 164.908 293.902 162.788 295.189 161.225C296.476 159.662 298.222 158.784 300.043 158.784H389.596C391.417 158.784 393.163 159.662 394.45 161.225C395.737 162.788 396.46 164.908 396.46 167.118C396.46 169.328 395.737 171.448 394.45 173.011C393.163 174.574 391.417 175.452 389.596 175.452V175.452Z" fill="#CCCCCC"/>
<path d="M389.596 211.348H300.043C298.222 211.348 296.476 210.47 295.189 208.907C293.902 207.344 293.178 205.224 293.178 203.014C293.178 200.804 293.902 198.684 295.189 197.121C296.476 195.558 298.222 194.68 300.043 194.68H389.596C391.417 194.68 393.163 195.558 394.45 197.121C395.737 198.684 396.46 200.804 396.46 203.014C396.46 205.224 395.737 207.344 394.45 208.907C393.163 210.47 391.417 211.348 389.596 211.348V211.348Z" fill="#CCCCCC"/>
<path d="M396.807 248.119H307.254C305.433 248.119 303.687 247.241 302.4 245.678C301.113 244.115 300.39 241.995 300.39 239.785C300.39 237.575 301.113 235.455 302.4 233.892C303.687 232.329 305.433 231.451 307.254 231.451H396.807C398.628 231.451 400.374 232.329 401.661 233.892C402.948 235.455 403.672 237.575 403.672 239.785C403.672 241.995 402.948 244.115 401.661 245.678C400.374 247.241 398.628 248.119 396.807 248.119V248.119Z" fill="#CCCCCC"/>
<path d="M401.855 286.641H312.302C310.481 286.641 308.735 285.763 307.448 284.2C306.161 282.637 305.438 280.518 305.438 278.307C305.438 276.097 306.161 273.977 307.448 272.414C308.735 270.852 310.481 269.974 312.302 269.974H401.855C403.676 269.974 405.422 270.852 406.709 272.414C407.996 273.977 408.719 276.097 408.719 278.307C408.719 280.518 407.996 282.637 406.709 284.2C405.422 285.763 403.676 286.641 401.855 286.641Z" fill="#CCCCCC"/>
<path d="M401.893 110.743H337.541C336.639 110.744 335.746 110.53 334.912 110.111C334.078 109.693 333.321 109.079 332.683 108.305C332.045 107.531 331.538 106.612 331.193 105.601C330.848 104.589 330.67 103.505 330.67 102.41C330.67 101.314 330.848 100.23 331.193 99.2184C331.538 98.2067 332.045 97.2876 332.683 96.5136C333.321 95.7397 334.078 95.126 334.912 94.7077C335.746 94.2894 336.639 94.0746 337.541 94.0757H401.893C403.714 94.0757 405.46 94.9538 406.747 96.5167C408.034 98.0795 408.757 100.199 408.757 102.41C408.757 104.62 408.034 106.739 406.747 108.302C405.46 109.865 403.714 110.743 401.893 110.743Z" fill="#00A8E8"/>
<path d="M437.364 289.689C442.541 289.689 446.738 284.593 446.738 278.307C446.738 272.021 442.541 266.926 437.364 266.926C432.186 266.926 427.989 272.021 427.989 278.307C427.989 284.593 432.186 289.689 437.364 289.689Z" fill="#CCCCCC"/>
<path d="M406.182 324.288H316.628C314.808 324.288 313.062 323.41 311.775 321.847C310.487 320.284 309.764 318.164 309.764 315.954C309.764 313.744 310.487 311.624 311.775 310.061C313.062 308.498 314.808 307.62 316.628 307.62H406.182C408.002 307.62 409.748 308.498 411.036 310.061C412.323 311.624 413.046 313.744 413.046 315.954C413.046 318.164 412.323 320.284 411.036 321.847C409.748 323.41 408.002 324.288 406.182 324.288Z" fill="#CCCCCC"/>
<path d="M441.691 327.336C446.868 327.336 451.065 322.24 451.065 315.954C451.065 309.668 446.868 304.572 441.691 304.572C436.513 304.572 432.316 309.668 432.316 315.954C432.316 322.24 436.513 327.336 441.691 327.336Z" fill="#CCCCCC"/>
</g>
<defs>
<clipPath id="clip0_11_50">
<rect width="612" height="411" fill="white"/>
</clipPath>
</defs>
</svg>
